<?xml version="1.0" encoding="UTF-8" standalone="no"?>
<!-- This is a Stata 18.0 generated SVG file (http://www.stata.com) -->

<svg version="1.1" width="7.500in" height="4.500in" viewBox="0 0 5400 3240" xmlns="http://www.w3.org/2000/svg" xmlns:xlink="http://www.w3.org/1999/xlink">
	<desc>Stata Graph - Graph</desc>
	<rect x="0" y="0" width="5400" height="3240" style="fill:#FFFFFF;stroke:none"/>
	<rect x="0.00" y="0.00" width="5400.00" height="3240.00" style="fill:#FFFFFF"/>
	<rect x="3.24" y="3.24" width="5393.52" height="3233.52" style="fill:none;stroke:#FFFFFF;stroke-width:6.48"/>
	<rect x="557.72" y="113.40" width="2829.43" height="2653.26" style="fill:#FFFFFF"/>
	<rect x="560.96" y="116.64" width="2822.95" height="2646.78" style="fill:none;stroke:#FFFFFF;stroke-width:6.48"/>
	<line x1="557.72" y1="2766.66" x2="622.52" y2="2766.66" style="stroke:#F0F0F0;stroke-width:9.72"/>
	<line x1="654.92" y1="2766.66" x2="719.72" y2="2766.66" style="stroke:#F0F0F0;stroke-width:9.72"/>
	<line x1="752.12" y1="2766.66" x2="816.92" y2="2766.66" style="stroke:#F0F0F0;stroke-width:9.72"/>
	<line x1="849.32" y1="2766.66" x2="914.12" y2="2766.66" style="stroke:#F0F0F0;stroke-width:9.72"/>
	<line x1="946.52" y1="2766.66" x2="1011.32" y2="2766.66" style="stroke:#F0F0F0;stroke-width:9.72"/>
	<line x1="1043.72" y1="2766.66" x2="1108.52" y2="2766.66" style="stroke:#F0F0F0;stroke-width:9.72"/>
	<line x1="1140.92" y1="2766.66" x2="1205.72" y2="2766.66" style="stroke:#F0F0F0;stroke-width:9.72"/>
	<line x1="1238.12" y1="2766.66" x2="1302.92" y2="2766.66" style="stroke:#F0F0F0;stroke-width:9.72"/>
	<line x1="1335.32" y1="2766.66" x2="1400.12" y2="2766.66" style="stroke:#F0F0F0;stroke-width:9.72"/>
	<line x1="1432.52" y1="2766.66" x2="1497.32" y2="2766.66" style="stroke:#F0F0F0;stroke-width:9.72"/>
	<line x1="1529.72" y1="2766.66" x2="1594.52" y2="2766.66" style="stroke:#F0F0F0;stroke-width:9.72"/>
	<line x1="1626.92" y1="2766.66" x2="1691.72" y2="2766.66" style="stroke:#F0F0F0;stroke-width:9.72"/>
	<line x1="1724.12" y1="2766.66" x2="1788.92" y2="2766.66" style="stroke:#F0F0F0;stroke-width:9.72"/>
	<line x1="1821.32" y1="2766.66" x2="1886.12" y2="2766.66" style="stroke:#F0F0F0;stroke-width:9.72"/>
	<line x1="1918.52" y1="2766.66" x2="1983.32" y2="2766.66" style="stroke:#F0F0F0;stroke-width:9.72"/>
	<line x1="2015.72" y1="2766.66" x2="2080.52" y2="2766.66" style="stroke:#F0F0F0;stroke-width:9.72"/>
	<line x1="2112.92" y1="2766.66" x2="2177.72" y2="2766.66" style="stroke:#F0F0F0;stroke-width:9.72"/>
	<line x1="2210.12" y1="2766.66" x2="2274.92" y2="2766.66" style="stroke:#F0F0F0;stroke-width:9.72"/>
	<line x1="2307.32" y1="2766.66" x2="2372.12" y2="2766.66" style="stroke:#F0F0F0;stroke-width:9.72"/>
	<line x1="2404.52" y1="2766.66" x2="2469.32" y2="2766.66" style="stroke:#F0F0F0;stroke-width:9.72"/>
	<line x1="2501.72" y1="2766.66" x2="2566.52" y2="2766.66" style="stroke:#F0F0F0;stroke-width:9.72"/>
	<line x1="2598.92" y1="2766.66" x2="2663.72" y2="2766.66" style="stroke:#F0F0F0;stroke-width:9.72"/>
	<line x1="2696.12" y1="2766.66" x2="2760.92" y2="2766.66" style="stroke:#F0F0F0;stroke-width:9.72"/>
	<line x1="2793.32" y1="2766.66" x2="2858.12" y2="2766.66" style="stroke:#F0F0F0;stroke-width:9.72"/>
	<line x1="2890.52" y1="2766.66" x2="2955.32" y2="2766.66" style="stroke:#F0F0F0;stroke-width:9.72"/>
	<line x1="2987.72" y1="2766.66" x2="3052.52" y2="2766.66" style="stroke:#F0F0F0;stroke-width:9.72"/>
	<line x1="3084.92" y1="2766.66" x2="3149.72" y2="2766.66" style="stroke:#F0F0F0;stroke-width:9.72"/>
	<line x1="3182.12" y1="2766.66" x2="3246.92" y2="2766.66" style="stroke:#F0F0F0;stroke-width:9.72"/>
	<line x1="3279.32" y1="2766.66" x2="3344.12" y2="2766.66" style="stroke:#F0F0F0;stroke-width:9.72"/>
	<line x1="3376.52" y1="2766.66" x2="3387.15" y2="2766.66" style="stroke:#F0F0F0;stroke-width:9.72"/>
	<line x1="557.72" y1="2170.29" x2="622.52" y2="2170.29" style="stroke:#F0F0F0;stroke-width:9.72"/>
	<line x1="654.92" y1="2170.29" x2="719.72" y2="2170.29" style="stroke:#F0F0F0;stroke-width:9.72"/>
	<line x1="752.12" y1="2170.29" x2="816.92" y2="2170.29" style="stroke:#F0F0F0;stroke-width:9.72"/>
	<line x1="849.32" y1="2170.29" x2="914.12" y2="2170.29" style="stroke:#F0F0F0;stroke-width:9.72"/>
	<line x1="946.52" y1="2170.29" x2="1011.32" y2="2170.29" style="stroke:#F0F0F0;stroke-width:9.72"/>
	<line x1="1043.72" y1="2170.29" x2="1108.52" y2="2170.29" style="stroke:#F0F0F0;stroke-width:9.72"/>
	<line x1="1140.92" y1="2170.29" x2="1205.72" y2="2170.29" style="stroke:#F0F0F0;stroke-width:9.72"/>
	<line x1="1238.12" y1="2170.29" x2="1302.92" y2="2170.29" style="stroke:#F0F0F0;stroke-width:9.72"/>
	<line x1="1335.32" y1="2170.29" x2="1400.12" y2="2170.29" style="stroke:#F0F0F0;stroke-width:9.72"/>
	<line x1="1432.52" y1="2170.29" x2="1497.32" y2="2170.29" style="stroke:#F0F0F0;stroke-width:9.72"/>
	<line x1="1529.72" y1="2170.29" x2="1594.52" y2="2170.29" style="stroke:#F0F0F0;stroke-width:9.72"/>
	<line x1="1626.92" y1="2170.29" x2="1691.72" y2="2170.29" style="stroke:#F0F0F0;stroke-width:9.72"/>
	<line x1="1724.12" y1="2170.29" x2="1788.92" y2="2170.29" style="stroke:#F0F0F0;stroke-width:9.72"/>
	<line x1="1821.32" y1="2170.29" x2="1886.12" y2="2170.29" style="stroke:#F0F0F0;stroke-width:9.72"/>
	<line x1="1918.52" y1="2170.29" x2="1983.32" y2="2170.29" style="stroke:#F0F0F0;stroke-width:9.72"/>
	<line x1="2015.72" y1="2170.29" x2="2080.52" y2="2170.29" style="stroke:#F0F0F0;stroke-width:9.72"/>
	<line x1="2112.92" y1="2170.29" x2="2177.72" y2="2170.29" style="stroke:#F0F0F0;stroke-width:9.72"/>
	<line x1="2210.12" y1="2170.29" x2="2274.92" y2="2170.29" style="stroke:#F0F0F0;stroke-width:9.72"/>
	<line x1="2307.32" y1="2170.29" x2="2372.12" y2="2170.29" style="stroke:#F0F0F0;stroke-width:9.72"/>
	<line x1="2404.52" y1="2170.29" x2="2469.32" y2="2170.29" style="stroke:#F0F0F0;stroke-width:9.72"/>
	<line x1="2501.72" y1="2170.29" x2="2566.52" y2="2170.29" style="stroke:#F0F0F0;stroke-width:9.72"/>
	<line x1="2598.92" y1="2170.29" x2="2663.72" y2="2170.29" style="stroke:#F0F0F0;stroke-width:9.72"/>
	<line x1="2696.12" y1="2170.29" x2="2760.92" y2="2170.29" style="stroke:#F0F0F0;stroke-width:9.72"/>
	<line x1="2793.32" y1="2170.29" x2="2858.12" y2="2170.29" style="stroke:#F0F0F0;stroke-width:9.72"/>
	<line x1="2890.52" y1="2170.29" x2="2955.32" y2="2170.29" style="stroke:#F0F0F0;stroke-width:9.72"/>
	<line x1="2987.72" y1="2170.29" x2="3052.52" y2="2170.29" style="stroke:#F0F0F0;stroke-width:9.72"/>
	<line x1="3084.92" y1="2170.29" x2="3149.72" y2="2170.29" style="stroke:#F0F0F0;stroke-width:9.72"/>
	<line x1="3182.12" y1="2170.29" x2="3246.92" y2="2170.29" style="stroke:#F0F0F0;stroke-width:9.72"/>
	<line x1="3279.32" y1="2170.29" x2="3344.12" y2="2170.29" style="stroke:#F0F0F0;stroke-width:9.72"/>
	<line x1="3376.52" y1="2170.29" x2="3387.15" y2="2170.29" style="stroke:#F0F0F0;stroke-width:9.72"/>
	<line x1="557.72" y1="1574.10" x2="622.52" y2="1574.10" style="stroke:#F0F0F0;stroke-width:9.72"/>
	<line x1="654.92" y1="1574.10" x2="719.72" y2="1574.10" style="stroke:#F0F0F0;stroke-width:9.72"/>
	<line x1="752.12" y1="1574.10" x2="816.92" y2="1574.10" style="stroke:#F0F0F0;stroke-width:9.72"/>
	<line x1="849.32" y1="1574.10" x2="914.12" y2="1574.10" style="stroke:#F0F0F0;stroke-width:9.72"/>
	<line x1="946.52" y1="1574.10" x2="1011.32" y2="1574.10" style="stroke:#F0F0F0;stroke-width:9.72"/>
	<line x1="1043.72" y1="1574.10" x2="1108.52" y2="1574.10" style="stroke:#F0F0F0;stroke-width:9.72"/>
	<line x1="1140.92" y1="1574.10" x2="1205.72" y2="1574.10" style="stroke:#F0F0F0;stroke-width:9.72"/>
	<line x1="1238.12" y1="1574.10" x2="1302.92" y2="1574.10" style="stroke:#F0F0F0;stroke-width:9.72"/>
	<line x1="1335.32" y1="1574.10" x2="1400.12" y2="1574.10" style="stroke:#F0F0F0;stroke-width:9.72"/>
	<line x1="1432.52" y1="1574.10" x2="1497.32" y2="1574.10" style="stroke:#F0F0F0;stroke-width:9.72"/>
	<line x1="1529.72" y1="1574.10" x2="1594.52" y2="1574.10" style="stroke:#F0F0F0;stroke-width:9.72"/>
	<line x1="1626.92" y1="1574.10" x2="1691.72" y2="1574.10" style="stroke:#F0F0F0;stroke-width:9.72"/>
	<line x1="1724.12" y1="1574.10" x2="1788.92" y2="1574.10" style="stroke:#F0F0F0;stroke-width:9.72"/>
	<line x1="1821.32" y1="1574.10" x2="1886.12" y2="1574.10" style="stroke:#F0F0F0;stroke-width:9.72"/>
	<line x1="1918.52" y1="1574.10" x2="1983.32" y2="1574.10" style="stroke:#F0F0F0;stroke-width:9.72"/>
	<line x1="2015.72" y1="1574.10" x2="2080.52" y2="1574.10" style="stroke:#F0F0F0;stroke-width:9.72"/>
	<line x1="2112.92" y1="1574.10" x2="2177.72" y2="1574.10" style="stroke:#F0F0F0;stroke-width:9.72"/>
	<line x1="2210.12" y1="1574.10" x2="2274.92" y2="1574.10" style="stroke:#F0F0F0;stroke-width:9.72"/>
	<line x1="2307.32" y1="1574.10" x2="2372.12" y2="1574.10" style="stroke:#F0F0F0;stroke-width:9.72"/>
	<line x1="2404.52" y1="1574.10" x2="2469.32" y2="1574.10" style="stroke:#F0F0F0;stroke-width:9.72"/>
	<line x1="2501.72" y1="1574.10" x2="2566.52" y2="1574.10" style="stroke:#F0F0F0;stroke-width:9.72"/>
	<line x1="2598.92" y1="1574.10" x2="2663.72" y2="1574.10" style="stroke:#F0F0F0;stroke-width:9.72"/>
	<line x1="2696.12" y1="1574.10" x2="2760.92" y2="1574.10" style="stroke:#F0F0F0;stroke-width:9.72"/>
	<line x1="2793.32" y1="1574.10" x2="2858.12" y2="1574.10" style="stroke:#F0F0F0;stroke-width:9.72"/>
	<line x1="2890.52" y1="1574.10" x2="2955.32" y2="1574.10" style="stroke:#F0F0F0;stroke-width:9.72"/>
	<line x1="2987.72" y1="1574.10" x2="3052.52" y2="1574.10" style="stroke:#F0F0F0;stroke-width:9.72"/>
	<line x1="3084.92" y1="1574.10" x2="3149.72" y2="1574.10" style="stroke:#F0F0F0;stroke-width:9.72"/>
	<line x1="3182.12" y1="1574.10" x2="3246.92" y2="1574.10" style="stroke:#F0F0F0;stroke-width:9.72"/>
	<line x1="3279.32" y1="1574.10" x2="3344.12" y2="1574.10" style="stroke:#F0F0F0;stroke-width:9.72"/>
	<line x1="3376.52" y1="1574.10" x2="3387.15" y2="1574.10" style="stroke:#F0F0F0;stroke-width:9.72"/>
	<line x1="557.72" y1="977.91" x2="622.52" y2="977.91" style="stroke:#F0F0F0;stroke-width:9.72"/>
	<line x1="654.92" y1="977.91" x2="719.72" y2="977.91" style="stroke:#F0F0F0;stroke-width:9.72"/>
	<line x1="752.12" y1="977.91" x2="816.92" y2="977.91" style="stroke:#F0F0F0;stroke-width:9.72"/>
	<line x1="849.32" y1="977.91" x2="914.12" y2="977.91" style="stroke:#F0F0F0;stroke-width:9.72"/>
	<line x1="946.52" y1="977.91" x2="1011.32" y2="977.91" style="stroke:#F0F0F0;stroke-width:9.72"/>
	<line x1="1043.72" y1="977.91" x2="1108.52" y2="977.91" style="stroke:#F0F0F0;stroke-width:9.72"/>
	<line x1="1140.92" y1="977.91" x2="1205.72" y2="977.91" style="stroke:#F0F0F0;stroke-width:9.72"/>
	<line x1="1238.12" y1="977.91" x2="1302.92" y2="977.91" style="stroke:#F0F0F0;stroke-width:9.72"/>
	<line x1="1335.32" y1="977.91" x2="1400.12" y2="977.91" style="stroke:#F0F0F0;stroke-width:9.72"/>
	<line x1="1432.52" y1="977.91" x2="1497.32" y2="977.91" style="stroke:#F0F0F0;stroke-width:9.72"/>
	<line x1="1529.72" y1="977.91" x2="1594.52" y2="977.91" style="stroke:#F0F0F0;stroke-width:9.72"/>
	<line x1="1626.92" y1="977.91" x2="1691.72" y2="977.91" style="stroke:#F0F0F0;stroke-width:9.72"/>
	<line x1="1724.12" y1="977.91" x2="1788.92" y2="977.91" style="stroke:#F0F0F0;stroke-width:9.72"/>
	<line x1="1821.32" y1="977.91" x2="1886.12" y2="977.91" style="stroke:#F0F0F0;stroke-width:9.72"/>
	<line x1="1918.52" y1="977.91" x2="1983.32" y2="977.91" style="stroke:#F0F0F0;stroke-width:9.72"/>
	<line x1="2015.72" y1="977.91" x2="2080.52" y2="977.91" style="stroke:#F0F0F0;stroke-width:9.72"/>
	<line x1="2112.92" y1="977.91" x2="2177.72" y2="977.91" style="stroke:#F0F0F0;stroke-width:9.72"/>
	<line x1="2210.12" y1="977.91" x2="2274.92" y2="977.91" style="stroke:#F0F0F0;stroke-width:9.72"/>
	<line x1="2307.32" y1="977.91" x2="2372.12" y2="977.91" style="stroke:#F0F0F0;stroke-width:9.72"/>
	<line x1="2404.52" y1="977.91" x2="2469.32" y2="977.91" style="stroke:#F0F0F0;stroke-width:9.72"/>
	<line x1="2501.72" y1="977.91" x2="2566.52" y2="977.91" style="stroke:#F0F0F0;stroke-width:9.72"/>
	<line x1="2598.92" y1="977.91" x2="2663.72" y2="977.91" style="stroke:#F0F0F0;stroke-width:9.72"/>
	<line x1="2696.12" y1="977.91" x2="2760.92" y2="977.91" style="stroke:#F0F0F0;stroke-width:9.72"/>
	<line x1="2793.32" y1="977.91" x2="2858.12" y2="977.91" style="stroke:#F0F0F0;stroke-width:9.72"/>
	<line x1="2890.52" y1="977.91" x2="2955.32" y2="977.91" style="stroke:#F0F0F0;stroke-width:9.72"/>
	<line x1="2987.72" y1="977.91" x2="3052.52" y2="977.91" style="stroke:#F0F0F0;stroke-width:9.72"/>
	<line x1="3084.92" y1="977.91" x2="3149.72" y2="977.91" style="stroke:#F0F0F0;stroke-width:9.72"/>
	<line x1="3182.12" y1="977.91" x2="3246.92" y2="977.91" style="stroke:#F0F0F0;stroke-width:9.72"/>
	<line x1="3279.32" y1="977.91" x2="3344.12" y2="977.91" style="stroke:#F0F0F0;stroke-width:9.72"/>
	<line x1="3376.52" y1="977.91" x2="3387.15" y2="977.91" style="stroke:#F0F0F0;stroke-width:9.72"/>
	<line x1="557.72" y1="381.54" x2="622.52" y2="381.54" style="stroke:#F0F0F0;stroke-width:9.72"/>
	<line x1="654.92" y1="381.54" x2="719.72" y2="381.54" style="stroke:#F0F0F0;stroke-width:9.72"/>
	<line x1="752.12" y1="381.54" x2="816.92" y2="381.54" style="stroke:#F0F0F0;stroke-width:9.72"/>
	<line x1="849.32" y1="381.54" x2="914.12" y2="381.54" style="stroke:#F0F0F0;stroke-width:9.72"/>
	<line x1="946.52" y1="381.54" x2="1011.32" y2="381.54" style="stroke:#F0F0F0;stroke-width:9.72"/>
	<line x1="1043.72" y1="381.54" x2="1108.52" y2="381.54" style="stroke:#F0F0F0;stroke-width:9.72"/>
	<line x1="1140.92" y1="381.54" x2="1205.72" y2="381.54" style="stroke:#F0F0F0;stroke-width:9.72"/>
	<line x1="1238.12" y1="381.54" x2="1302.92" y2="381.54" style="stroke:#F0F0F0;stroke-width:9.72"/>
	<line x1="1335.32" y1="381.54" x2="1400.12" y2="381.54" style="stroke:#F0F0F0;stroke-width:9.72"/>
	<line x1="1432.52" y1="381.54" x2="1497.32" y2="381.54" style="stroke:#F0F0F0;stroke-width:9.72"/>
	<line x1="1529.72" y1="381.54" x2="1594.52" y2="381.54" style="stroke:#F0F0F0;stroke-width:9.72"/>
	<line x1="1626.92" y1="381.54" x2="1691.72" y2="381.54" style="stroke:#F0F0F0;stroke-width:9.72"/>
	<line x1="1724.12" y1="381.54" x2="1788.92" y2="381.54" style="stroke:#F0F0F0;stroke-width:9.72"/>
	<line x1="1821.32" y1="381.54" x2="1886.12" y2="381.54" style="stroke:#F0F0F0;stroke-width:9.72"/>
	<line x1="1918.52" y1="381.54" x2="1983.32" y2="381.54" style="stroke:#F0F0F0;stroke-width:9.72"/>
	<line x1="2015.72" y1="381.54" x2="2080.52" y2="381.54" style="stroke:#F0F0F0;stroke-width:9.72"/>
	<line x1="2112.92" y1="381.54" x2="2177.72" y2="381.54" style="stroke:#F0F0F0;stroke-width:9.72"/>
	<line x1="2210.12" y1="381.54" x2="2274.92" y2="381.54" style="stroke:#F0F0F0;stroke-width:9.72"/>
	<line x1="2307.32" y1="381.54" x2="2372.12" y2="381.54" style="stroke:#F0F0F0;stroke-width:9.72"/>
	<line x1="2404.52" y1="381.54" x2="2469.32" y2="381.54" style="stroke:#F0F0F0;stroke-width:9.72"/>
	<line x1="2501.72" y1="381.54" x2="2566.52" y2="381.54" style="stroke:#F0F0F0;stroke-width:9.72"/>
	<line x1="2598.92" y1="381.54" x2="2663.72" y2="381.54" style="stroke:#F0F0F0;stroke-width:9.72"/>
	<line x1="2696.12" y1="381.54" x2="2760.92" y2="381.54" style="stroke:#F0F0F0;stroke-width:9.72"/>
	<line x1="2793.32" y1="381.54" x2="2858.12" y2="381.54" style="stroke:#F0F0F0;stroke-width:9.72"/>
	<line x1="2890.52" y1="381.54" x2="2955.32" y2="381.54" style="stroke:#F0F0F0;stroke-width:9.72"/>
	<line x1="2987.72" y1="381.54" x2="3052.52" y2="381.54" style="stroke:#F0F0F0;stroke-width:9.72"/>
	<line x1="3084.92" y1="381.54" x2="3149.72" y2="381.54" style="stroke:#F0F0F0;stroke-width:9.72"/>
	<line x1="3182.12" y1="381.54" x2="3246.92" y2="381.54" style="stroke:#F0F0F0;stroke-width:9.72"/>
	<line x1="3279.32" y1="381.54" x2="3344.12" y2="381.54" style="stroke:#F0F0F0;stroke-width:9.72"/>
	<line x1="3376.52" y1="381.54" x2="3387.15" y2="381.54" style="stroke:#F0F0F0;stroke-width:9.72"/>
	<line x1="629.10" y1="2766.66" x2="629.10" y2="2701.86" style="stroke:#F0F0F0;stroke-width:9.72"/>
	<line x1="629.10" y1="2669.46" x2="629.10" y2="2604.66" style="stroke:#F0F0F0;stroke-width:9.72"/>
	<line x1="629.10" y1="2572.26" x2="629.10" y2="2507.46" style="stroke:#F0F0F0;stroke-width:9.72"/>
	<line x1="629.10" y1="2475.06" x2="629.10" y2="2410.26" style="stroke:#F0F0F0;stroke-width:9.72"/>
	<line x1="629.10" y1="2377.86" x2="629.10" y2="2313.06" style="stroke:#F0F0F0;stroke-width:9.72"/>
	<line x1="629.10" y1="2280.66" x2="629.10" y2="2215.86" style="stroke:#F0F0F0;stroke-width:9.72"/>
	<line x1="629.10" y1="2183.46" x2="629.10" y2="2118.66" style="stroke:#F0F0F0;stroke-width:9.72"/>
	<line x1="629.10" y1="2086.26" x2="629.10" y2="2021.46" style="stroke:#F0F0F0;stroke-width:9.72"/>
	<line x1="629.10" y1="1989.06" x2="629.10" y2="1924.26" style="stroke:#F0F0F0;stroke-width:9.72"/>
	<line x1="629.10" y1="1891.86" x2="629.10" y2="1827.06" style="stroke:#F0F0F0;stroke-width:9.72"/>
	<line x1="629.10" y1="1794.66" x2="629.10" y2="1729.86" style="stroke:#F0F0F0;stroke-width:9.72"/>
	<line x1="629.10" y1="1697.46" x2="629.10" y2="1632.66" style="stroke:#F0F0F0;stroke-width:9.72"/>
	<line x1="629.10" y1="1600.26" x2="629.10" y2="1535.46" style="stroke:#F0F0F0;stroke-width:9.72"/>
	<line x1="629.10" y1="1503.06" x2="629.10" y2="1438.26" style="stroke:#F0F0F0;stroke-width:9.72"/>
	<line x1="629.10" y1="1405.86" x2="629.10" y2="1341.06" style="stroke:#F0F0F0;stroke-width:9.72"/>
	<line x1="629.10" y1="1308.66" x2="629.10" y2="1243.86" style="stroke:#F0F0F0;stroke-width:9.72"/>
	<line x1="629.10" y1="1211.46" x2="629.10" y2="1146.66" style="stroke:#F0F0F0;stroke-width:9.72"/>
	<line x1="629.10" y1="1114.26" x2="629.10" y2="1049.46" style="stroke:#F0F0F0;stroke-width:9.72"/>
	<line x1="629.10" y1="1017.06" x2="629.10" y2="952.26" style="stroke:#F0F0F0;stroke-width:9.72"/>
	<line x1="629.10" y1="919.86" x2="629.10" y2="855.06" style="stroke:#F0F0F0;stroke-width:9.72"/>
	<line x1="629.10" y1="822.66" x2="629.10" y2="757.86" style="stroke:#F0F0F0;stroke-width:9.72"/>
	<line x1="629.10" y1="725.46" x2="629.10" y2="660.66" style="stroke:#F0F0F0;stroke-width:9.72"/>
	<line x1="629.10" y1="628.26" x2="629.10" y2="563.46" style="stroke:#F0F0F0;stroke-width:9.72"/>
	<line x1="629.10" y1="531.06" x2="629.10" y2="466.26" style="stroke:#F0F0F0;stroke-width:9.72"/>
	<line x1="629.10" y1="433.86" x2="629.10" y2="369.06" style="stroke:#F0F0F0;stroke-width:9.72"/>
	<line x1="629.10" y1="336.66" x2="629.10" y2="271.86" style="stroke:#F0F0F0;stroke-width:9.72"/>
	<line x1="629.10" y1="239.46" x2="629.10" y2="174.66" style="stroke:#F0F0F0;stroke-width:9.72"/>
	<line x1="629.10" y1="142.26" x2="629.10" y2="113.40" style="stroke:#F0F0F0;stroke-width:9.72"/>
	<line x1="1300.72" y1="2766.66" x2="1300.72" y2="2701.86" style="stroke:#F0F0F0;stroke-width:9.72"/>
	<line x1="1300.72" y1="2669.46" x2="1300.72" y2="2604.66" style="stroke:#F0F0F0;stroke-width:9.72"/>
	<line x1="1300.72" y1="2572.26" x2="1300.72" y2="2507.46" style="stroke:#F0F0F0;stroke-width:9.72"/>
	<line x1="1300.72" y1="2475.06" x2="1300.72" y2="2410.26" style="stroke:#F0F0F0;stroke-width:9.72"/>
	<line x1="1300.72" y1="2377.86" x2="1300.72" y2="2313.06" style="stroke:#F0F0F0;stroke-width:9.72"/>
	<line x1="1300.72" y1="2280.66" x2="1300.72" y2="2215.86" style="stroke:#F0F0F0;stroke-width:9.72"/>
	<line x1="1300.72" y1="2183.46" x2="1300.72" y2="2118.66" style="stroke:#F0F0F0;stroke-width:9.72"/>
	<line x1="1300.72" y1="2086.26" x2="1300.72" y2="2021.46" style="stroke:#F0F0F0;stroke-width:9.72"/>
	<line x1="1300.72" y1="1989.06" x2="1300.72" y2="1924.26" style="stroke:#F0F0F0;stroke-width:9.72"/>
	<line x1="1300.72" y1="1891.86" x2="1300.72" y2="1827.06" style="stroke:#F0F0F0;stroke-width:9.72"/>
	<line x1="1300.72" y1="1794.66" x2="1300.72" y2="1729.86" style="stroke:#F0F0F0;stroke-width:9.72"/>
	<line x1="1300.72" y1="1697.46" x2="1300.72" y2="1632.66" style="stroke:#F0F0F0;stroke-width:9.72"/>
	<line x1="1300.72" y1="1600.26" x2="1300.72" y2="1535.46" style="stroke:#F0F0F0;stroke-width:9.72"/>
	<line x1="1300.72" y1="1503.06" x2="1300.72" y2="1438.26" style="stroke:#F0F0F0;stroke-width:9.72"/>
	<line x1="1300.72" y1="1405.86" x2="1300.72" y2="1341.06" style="stroke:#F0F0F0;stroke-width:9.72"/>
	<line x1="1300.72" y1="1308.66" x2="1300.72" y2="1243.86" style="stroke:#F0F0F0;stroke-width:9.72"/>
	<line x1="1300.72" y1="1211.46" x2="1300.72" y2="1146.66" style="stroke:#F0F0F0;stroke-width:9.72"/>
	<line x1="1300.72" y1="1114.26" x2="1300.72" y2="1049.46" style="stroke:#F0F0F0;stroke-width:9.72"/>
	<line x1="1300.72" y1="1017.06" x2="1300.72" y2="952.26" style="stroke:#F0F0F0;stroke-width:9.72"/>
	<line x1="1300.72" y1="919.86" x2="1300.72" y2="855.06" style="stroke:#F0F0F0;stroke-width:9.72"/>
	<line x1="1300.72" y1="822.66" x2="1300.72" y2="757.86" style="stroke:#F0F0F0;stroke-width:9.72"/>
	<line x1="1300.72" y1="725.46" x2="1300.72" y2="660.66" style="stroke:#F0F0F0;stroke-width:9.72"/>
	<line x1="1300.72" y1="628.26" x2="1300.72" y2="563.46" style="stroke:#F0F0F0;stroke-width:9.72"/>
	<line x1="1300.72" y1="531.06" x2="1300.72" y2="466.26" style="stroke:#F0F0F0;stroke-width:9.72"/>
	<line x1="1300.72" y1="433.86" x2="1300.72" y2="369.06" style="stroke:#F0F0F0;stroke-width:9.72"/>
	<line x1="1300.72" y1="336.66" x2="1300.72" y2="271.86" style="stroke:#F0F0F0;stroke-width:9.72"/>
	<line x1="1300.72" y1="239.46" x2="1300.72" y2="174.66" style="stroke:#F0F0F0;stroke-width:9.72"/>
	<line x1="1300.72" y1="142.26" x2="1300.72" y2="113.40" style="stroke:#F0F0F0;stroke-width:9.72"/>
	<line x1="1972.52" y1="2766.66" x2="1972.52" y2="2701.86" style="stroke:#F0F0F0;stroke-width:9.72"/>
	<line x1="1972.52" y1="2669.46" x2="1972.52" y2="2604.66" style="stroke:#F0F0F0;stroke-width:9.72"/>
	<line x1="1972.52" y1="2572.26" x2="1972.52" y2="2507.46" style="stroke:#F0F0F0;stroke-width:9.72"/>
	<line x1="1972.52" y1="2475.06" x2="1972.52" y2="2410.26" style="stroke:#F0F0F0;stroke-width:9.72"/>
	<line x1="1972.52" y1="2377.86" x2="1972.52" y2="2313.06" style="stroke:#F0F0F0;stroke-width:9.72"/>
	<line x1="1972.52" y1="2280.66" x2="1972.52" y2="2215.86" style="stroke:#F0F0F0;stroke-width:9.72"/>
	<line x1="1972.52" y1="2183.46" x2="1972.52" y2="2118.66" style="stroke:#F0F0F0;stroke-width:9.72"/>
	<line x1="1972.52" y1="2086.26" x2="1972.52" y2="2021.46" style="stroke:#F0F0F0;stroke-width:9.72"/>
	<line x1="1972.52" y1="1989.06" x2="1972.52" y2="1924.26" style="stroke:#F0F0F0;stroke-width:9.72"/>
	<line x1="1972.52" y1="1891.86" x2="1972.52" y2="1827.06" style="stroke:#F0F0F0;stroke-width:9.72"/>
	<line x1="1972.52" y1="1794.66" x2="1972.52" y2="1729.86" style="stroke:#F0F0F0;stroke-width:9.72"/>
	<line x1="1972.52" y1="1697.46" x2="1972.52" y2="1632.66" style="stroke:#F0F0F0;stroke-width:9.72"/>
	<line x1="1972.52" y1="1600.26" x2="1972.52" y2="1535.46" style="stroke:#F0F0F0;stroke-width:9.72"/>
	<line x1="1972.52" y1="1503.06" x2="1972.52" y2="1438.26" style="stroke:#F0F0F0;stroke-width:9.72"/>
	<line x1="1972.52" y1="1405.86" x2="1972.52" y2="1341.06" style="stroke:#F0F0F0;stroke-width:9.72"/>
	<line x1="1972.52" y1="1308.66" x2="1972.52" y2="1243.86" style="stroke:#F0F0F0;stroke-width:9.72"/>
	<line x1="1972.52" y1="1211.46" x2="1972.52" y2="1146.66" style="stroke:#F0F0F0;stroke-width:9.72"/>
	<line x1="1972.52" y1="1114.26" x2="1972.52" y2="1049.46" style="stroke:#F0F0F0;stroke-width:9.72"/>
	<line x1="1972.52" y1="1017.06" x2="1972.52" y2="952.26" style="stroke:#F0F0F0;stroke-width:9.72"/>
	<line x1="1972.52" y1="919.86" x2="1972.52" y2="855.06" style="stroke:#F0F0F0;stroke-width:9.72"/>
	<line x1="1972.52" y1="822.66" x2="1972.52" y2="757.86" style="stroke:#F0F0F0;stroke-width:9.72"/>
	<line x1="1972.52" y1="725.46" x2="1972.52" y2="660.66" style="stroke:#F0F0F0;stroke-width:9.72"/>
	<line x1="1972.52" y1="628.26" x2="1972.52" y2="563.46" style="stroke:#F0F0F0;stroke-width:9.72"/>
	<line x1="1972.52" y1="531.06" x2="1972.52" y2="466.26" style="stroke:#F0F0F0;stroke-width:9.72"/>
	<line x1="1972.52" y1="433.86" x2="1972.52" y2="369.06" style="stroke:#F0F0F0;stroke-width:9.72"/>
	<line x1="1972.52" y1="336.66" x2="1972.52" y2="271.86" style="stroke:#F0F0F0;stroke-width:9.72"/>
	<line x1="1972.52" y1="239.46" x2="1972.52" y2="174.66" style="stroke:#F0F0F0;stroke-width:9.72"/>
	<line x1="1972.52" y1="142.26" x2="1972.52" y2="113.40" style="stroke:#F0F0F0;stroke-width:9.72"/>
	<line x1="2644.14" y1="2766.66" x2="2644.14" y2="2701.86" style="stroke:#F0F0F0;stroke-width:9.72"/>
	<line x1="2644.14" y1="2669.46" x2="2644.14" y2="2604.66" style="stroke:#F0F0F0;stroke-width:9.72"/>
	<line x1="2644.14" y1="2572.26" x2="2644.14" y2="2507.46" style="stroke:#F0F0F0;stroke-width:9.72"/>
	<line x1="2644.14" y1="2475.06" x2="2644.14" y2="2410.26" style="stroke:#F0F0F0;stroke-width:9.72"/>
	<line x1="2644.14" y1="2377.86" x2="2644.14" y2="2313.06" style="stroke:#F0F0F0;stroke-width:9.72"/>
	<line x1="2644.14" y1="2280.66" x2="2644.14" y2="2215.86" style="stroke:#F0F0F0;stroke-width:9.72"/>
	<line x1="2644.14" y1="2183.46" x2="2644.14" y2="2118.66" style="stroke:#F0F0F0;stroke-width:9.72"/>
	<line x1="2644.14" y1="2086.26" x2="2644.14" y2="2021.46" style="stroke:#F0F0F0;stroke-width:9.72"/>
	<line x1="2644.14" y1="1989.06" x2="2644.14" y2="1924.26" style="stroke:#F0F0F0;stroke-width:9.72"/>
	<line x1="2644.14" y1="1891.86" x2="2644.14" y2="1827.06" style="stroke:#F0F0F0;stroke-width:9.72"/>
	<line x1="2644.14" y1="1794.66" x2="2644.14" y2="1729.86" style="stroke:#F0F0F0;stroke-width:9.72"/>
	<line x1="2644.14" y1="1697.46" x2="2644.14" y2="1632.66" style="stroke:#F0F0F0;stroke-width:9.72"/>
	<line x1="2644.14" y1="1600.26" x2="2644.14" y2="1535.46" style="stroke:#F0F0F0;stroke-width:9.72"/>
	<line x1="2644.14" y1="1503.06" x2="2644.14" y2="1438.26" style="stroke:#F0F0F0;stroke-width:9.72"/>
	<line x1="2644.14" y1="1405.86" x2="2644.14" y2="1341.06" style="stroke:#F0F0F0;stroke-width:9.72"/>
	<line x1="2644.14" y1="1308.66" x2="2644.14" y2="1243.86" style="stroke:#F0F0F0;stroke-width:9.72"/>
	<line x1="2644.14" y1="1211.46" x2="2644.14" y2="1146.66" style="stroke:#F0F0F0;stroke-width:9.72"/>
	<line x1="2644.14" y1="1114.26" x2="2644.14" y2="1049.46" style="stroke:#F0F0F0;stroke-width:9.72"/>
	<line x1="2644.14" y1="1017.06" x2="2644.14" y2="952.26" style="stroke:#F0F0F0;stroke-width:9.72"/>
	<line x1="2644.14" y1="919.86" x2="2644.14" y2="855.06" style="stroke:#F0F0F0;stroke-width:9.72"/>
	<line x1="2644.14" y1="822.66" x2="2644.14" y2="757.86" style="stroke:#F0F0F0;stroke-width:9.72"/>
	<line x1="2644.14" y1="725.46" x2="2644.14" y2="660.66" style="stroke:#F0F0F0;stroke-width:9.72"/>
	<line x1="2644.14" y1="628.26" x2="2644.14" y2="563.46" style="stroke:#F0F0F0;stroke-width:9.72"/>
	<line x1="2644.14" y1="531.06" x2="2644.14" y2="466.26" style="stroke:#F0F0F0;stroke-width:9.72"/>
	<line x1="2644.14" y1="433.86" x2="2644.14" y2="369.06" style="stroke:#F0F0F0;stroke-width:9.72"/>
	<line x1="2644.14" y1="336.66" x2="2644.14" y2="271.86" style="stroke:#F0F0F0;stroke-width:9.72"/>
	<line x1="2644.14" y1="239.46" x2="2644.14" y2="174.66" style="stroke:#F0F0F0;stroke-width:9.72"/>
	<line x1="2644.14" y1="142.26" x2="2644.14" y2="113.40" style="stroke:#F0F0F0;stroke-width:9.72"/>
	<line x1="3315.94" y1="2766.66" x2="3315.94" y2="2701.86" style="stroke:#F0F0F0;stroke-width:9.72"/>
	<line x1="3315.94" y1="2669.46" x2="3315.94" y2="2604.66" style="stroke:#F0F0F0;stroke-width:9.72"/>
	<line x1="3315.94" y1="2572.26" x2="3315.94" y2="2507.46" style="stroke:#F0F0F0;stroke-width:9.72"/>
	<line x1="3315.94" y1="2475.06" x2="3315.94" y2="2410.26" style="stroke:#F0F0F0;stroke-width:9.72"/>
	<line x1="3315.94" y1="2377.86" x2="3315.94" y2="2313.06" style="stroke:#F0F0F0;stroke-width:9.72"/>
	<line x1="3315.94" y1="2280.66" x2="3315.94" y2="2215.86" style="stroke:#F0F0F0;stroke-width:9.72"/>
	<line x1="3315.94" y1="2183.46" x2="3315.94" y2="2118.66" style="stroke:#F0F0F0;stroke-width:9.72"/>
	<line x1="3315.94" y1="2086.26" x2="3315.94" y2="2021.46" style="stroke:#F0F0F0;stroke-width:9.72"/>
	<line x1="3315.94" y1="1989.06" x2="3315.94" y2="1924.26" style="stroke:#F0F0F0;stroke-width:9.72"/>
	<line x1="3315.94" y1="1891.86" x2="3315.94" y2="1827.06" style="stroke:#F0F0F0;stroke-width:9.72"/>
	<line x1="3315.94" y1="1794.66" x2="3315.94" y2="1729.86" style="stroke:#F0F0F0;stroke-width:9.72"/>
	<line x1="3315.94" y1="1697.46" x2="3315.94" y2="1632.66" style="stroke:#F0F0F0;stroke-width:9.72"/>
	<line x1="3315.94" y1="1600.26" x2="3315.94" y2="1535.46" style="stroke:#F0F0F0;stroke-width:9.72"/>
	<line x1="3315.94" y1="1503.06" x2="3315.94" y2="1438.26" style="stroke:#F0F0F0;stroke-width:9.72"/>
	<line x1="3315.94" y1="1405.86" x2="3315.94" y2="1341.06" style="stroke:#F0F0F0;stroke-width:9.72"/>
	<line x1="3315.94" y1="1308.66" x2="3315.94" y2="1243.86" style="stroke:#F0F0F0;stroke-width:9.72"/>
	<line x1="3315.94" y1="1211.46" x2="3315.94" y2="1146.66" style="stroke:#F0F0F0;stroke-width:9.72"/>
	<line x1="3315.94" y1="1114.26" x2="3315.94" y2="1049.46" style="stroke:#F0F0F0;stroke-width:9.72"/>
	<line x1="3315.94" y1="1017.06" x2="3315.94" y2="952.26" style="stroke:#F0F0F0;stroke-width:9.72"/>
	<line x1="3315.94" y1="919.86" x2="3315.94" y2="855.06" style="stroke:#F0F0F0;stroke-width:9.72"/>
	<line x1="3315.94" y1="822.66" x2="3315.94" y2="757.86" style="stroke:#F0F0F0;stroke-width:9.72"/>
	<line x1="3315.94" y1="725.46" x2="3315.94" y2="660.66" style="stroke:#F0F0F0;stroke-width:9.72"/>
	<line x1="3315.94" y1="628.26" x2="3315.94" y2="563.46" style="stroke:#F0F0F0;stroke-width:9.72"/>
	<line x1="3315.94" y1="531.06" x2="3315.94" y2="466.26" style="stroke:#F0F0F0;stroke-width:9.72"/>
	<line x1="3315.94" y1="433.86" x2="3315.94" y2="369.06" style="stroke:#F0F0F0;stroke-width:9.72"/>
	<line x1="3315.94" y1="336.66" x2="3315.94" y2="271.86" style="stroke:#F0F0F0;stroke-width:9.72"/>
	<line x1="3315.94" y1="239.46" x2="3315.94" y2="174.66" style="stroke:#F0F0F0;stroke-width:9.72"/>
	<line x1="3315.94" y1="142.26" x2="3315.94" y2="113.40" style="stroke:#F0F0F0;stroke-width:9.72"/>
	<rect x="876.49" y="1655.61" width="480.77" height="1111.05" style="fill:#FF8C19;fill-opacity:0.40"/>
	<rect x="878.92" y="1658.04" width="475.91" height="1106.19" style="fill:none;stroke:#5FAAFF;stroke-width:4.86"/>
	<rect x="1357.26" y="1516.73" width="480.60" height="1249.93" style="fill:#FF8C19;fill-opacity:0.40"/>
	<rect x="1359.69" y="1519.16" width="475.74" height="1245.07" style="fill:none;stroke:#5FAAFF;stroke-width:4.86"/>
	<rect x="1837.86" y="1933.37" width="480.60" height="833.29" style="fill:#FF8C19;fill-opacity:0.40"/>
	<rect x="1840.29" y="1935.80" width="475.74" height="828.43" style="fill:none;stroke:#5FAAFF;stroke-width:4.86"/>
	<rect x="2318.46" y="1933.37" width="480.60" height="833.29" style="fill:#FF8C19;fill-opacity:0.40"/>
	<rect x="2320.89" y="1935.80" width="475.74" height="828.43" style="fill:none;stroke:#5FAAFF;stroke-width:4.86"/>
	<rect x="2799.06" y="2627.78" width="480.60" height="138.88" style="fill:#FF8C19;fill-opacity:0.40"/>
	<rect x="2801.49" y="2630.21" width="475.74" height="134.02" style="fill:none;stroke:#5FAAFF;stroke-width:4.86"/>
	<path d=" M876.49 2396.59 L884.59 2388.49 L892.52 2380.22 L900.62 2371.95 L908.55 2363.51 L916.65 2355.07 L924.75 2346.47 L932.68 2337.69 L940.78 2328.92 L948.88 2319.98 L956.81 2311.03 L964.91 2301.92 L972.84 2292.81 L980.94 2283.53 L989.04 2274.07 L996.98 2264.63 L1005.08 2255.01 L1013.18 2245.39 L1021.11 2235.60 L1029.21 2225.81 L1037.14 2215.86 L1045.24 2205.90 L1053.34 2195.94 L1061.27 2185.82 L1069.37 2175.53 L1077.47 2165.23 L1085.40 2154.94 L1093.50 2144.48 L1101.43 2134.01 L1109.53 2123.55 L1117.63 2112.92 L1125.56 2102.29 L1133.66 2091.66 L1141.76 2081.03 L1149.69 2070.23 L1157.79 2059.43 L1165.89 2048.46 L1173.83 2037.66 L1181.93 2026.69 L1189.86 2015.89 L1197.96 2004.92 L1206.06 1993.95 L1213.99 1982.98 L1222.09 1971.84 L1230.19 1960.88 L1238.12 1949.91 L1246.22 1938.94 L1254.15 1927.80 L1262.25 1916.83 L1270.35 1905.86 L1278.28 1894.89 L1286.38 1883.93 L1294.48 1873.13 L1302.41 1862.16 L1310.51 1851.36 L1318.44 1840.56 L1326.54 1829.76 L1334.64 1818.96 L1342.58 1808.33 L1350.68 1797.69 L1358.78 1787.23 L1366.71 1776.60 L1374.81 1766.31 L1382.74 1755.84 L1390.84 1745.72 L1398.94 1735.43 L1406.87 1725.47 L1414.97 1715.34 L1423.07 1705.56 L1431.00 1695.77 L1439.10 1685.98 L1447.03 1676.36 L1455.13 1666.91 L1463.23 1657.63 L1471.16 1648.35 L1479.26 1639.41 L1487.36 1630.29 L1495.29 1621.52 L1503.39 1612.91 L1511.49 1604.31 L1519.43 1596.04 L1527.53 1587.77 L1535.46 1579.67 L1543.56 1571.74 L1551.66 1564.14 L1559.59 1556.55 L1567.69 1549.13 L1575.79 1541.87 L1583.72 1534.95 L1591.82 1528.03 L1599.75 1521.45 L1607.85 1515.04 L1615.95 1508.63 L1623.88 1502.72 L1631.98 1496.81 L1640.08 1491.08 L1648.01 1485.68 L1656.11 1480.44 L1664.04 1475.38 L1672.14 1470.66 L1680.24 1466.10 L1688.18 1461.71 L1696.28 1457.66 L1704.38 1453.61 L1712.31 1450.07 L1720.41 1446.53 L1728.34 1443.32 L1736.44 1440.45 L1744.54 1437.58 L1752.47 1435.05 L1760.57 1432.86 L1768.67 1430.83 L1776.60 1428.98 L1784.70 1427.46 L1792.63 1426.28 L1800.73 1425.09 L1808.83 1424.42 L1816.76 1423.74 L1824.86 1423.41 L1832.96 1423.41 L1840.89 1423.58 L1848.99 1423.91 L1857.09 1424.59 L1865.03 1425.60 L1873.13 1426.61 L1881.06 1428.13 L1889.16 1429.65 L1897.26 1431.51 L1905.19 1433.70 L1913.29 1436.06 L1921.39 1438.59 L1929.32 1441.46 L1937.42 1444.50 L1945.35 1447.88 L1953.45 1451.42 L1961.55 1455.13 L1969.48 1459.18 L1977.58 1463.40 L1985.68 1467.79 L1993.61 1472.51 L2001.71 1477.41 L2009.64 1482.47 L2017.74 1487.70 L2025.84 1493.27 L2033.78 1499.01 L2041.88 1504.91 L2049.98 1511.16 L2057.91 1517.40 L2066.01 1523.98 L2073.94 1530.73 L2082.04 1537.65 L2090.14 1544.74 L2098.07 1551.99 L2106.17 1559.42 L2114.27 1567.01 L2122.20 1574.78 L2130.30 1582.71 L2138.23 1590.98 L2146.33 1599.24 L2154.43 1607.68 L2162.36 1616.12 L2170.46 1624.89 L2178.56 1633.84 L2186.49 1642.78 L2194.59 1651.89 L2202.69 1661.18 L2210.63 1670.63 L2218.73 1680.08 L2226.66 1689.69 L2234.76 1699.48 L2242.86 1709.27 L2250.79 1719.23 L2258.89 1729.18 L2266.99 1739.31 L2274.92 1749.60 L2283.02 1759.89 L2290.95 1770.19 L2299.05 1780.65 L2307.15 1791.28 L2315.08 1801.74 L2323.18 1812.38 L2331.28 1823.18 L2339.21 1833.81 L2347.31 1844.61 L2355.24 1855.41 L2363.34 1866.38 L2371.44 1877.18 L2379.38 1888.14 L2387.48 1899.11 L2395.57 1910.08 L2403.51 1921.05 L2411.61 1932.02 L2419.54 1943.16 L2427.64 1954.13 L2435.74 1965.09 L2443.67 1976.06 L2451.77 1987.03 L2459.87 1998.17 L2467.80 2009.14 L2475.90 2019.94 L2483.83 2030.91 L2491.93 2041.88 L2500.03 2052.68 L2507.96 2063.48 L2516.06 2074.28 L2524.16 2085.07 L2532.09 2095.71 L2540.19 2106.51 L2548.29 2116.97 L2556.23 2127.60 L2564.32 2138.06 L2572.26 2148.53 L2580.36 2158.99 L2588.46 2169.28 L2596.39 2179.41 L2604.49 2189.70 L2612.59 2199.82 L2620.52 2209.78 L2628.62 2219.74 L2636.55 2229.53 L2644.65 2239.31 L2652.75 2249.10 L2660.68 2258.72 L2668.78 2268.17 L2676.88 2277.62 L2684.81 2287.07 L2692.91 2296.35 L2700.84 2305.46 L2708.94 2314.57 L2717.04 2323.52 L2724.98 2332.29 L2733.08 2341.07 L2741.18 2349.84 L2749.11 2358.28 L2757.21 2366.89 L2765.14 2375.16 L2773.24 2383.43 L2781.34 2391.53 L2789.27 2399.63 L2797.37 2407.56 L2805.47 2415.32 L2813.40 2423.08 L2821.50 2430.68 L2829.60 2438.27 L2837.53 2445.69 L2845.63 2452.95 L2853.56 2460.04 L2861.66 2467.13 L2869.76 2474.04 L2877.69 2480.96 L2885.79 2487.71 L2893.89 2494.29 L2901.83 2500.88 L2909.93 2507.29 L2917.86 2513.53 L2925.96 2519.78 L2934.06 2525.85 L2941.99 2531.93 L2950.09 2537.66 L2958.19 2543.57 L2966.12 2549.14 L2974.22 2554.71 L2982.15 2560.11 L2990.25 2565.51 L2998.35 2570.74 L3006.28 2575.97 L3014.38 2581.03 L3022.48 2585.93 L3030.41 2590.82 L3038.51 2595.54 L3046.44 2600.10 L3054.54 2604.66 L3062.64 2609.21 L3070.58 2613.43 L3078.68 2617.82 L3086.78 2621.87 L3094.71 2626.09 L3102.81 2629.97 L3110.74 2633.85 L3118.84 2637.73 L3126.94 2641.44 L3134.87 2645.16 L3142.97 2648.70 L3151.07 2652.08 L3159.00 2655.62 L3167.10 2658.83 L3175.20 2662.03 L3183.13 2665.24 L3191.23 2668.28 L3199.16 2671.31 L3207.26 2674.18 L3215.36 2677.05 L3223.29 2679.92 L3231.39 2682.62 L3239.49 2685.32 L3247.43 2687.85 L3255.53 2690.38 L3263.46 2692.74 L3271.56 2695.11 L3279.66 2697.47" stroke-linejoin="round" style="fill:none;stroke:#000000;stroke-width:9.72"/>
	<rect x="1150.37" y="2213.32" width="361.97" height="553.33" style="fill:#198DFF;fill-opacity:0.50"/>
	<rect x="1152.80" y="2215.75" width="357.11" height="548.47" style="fill:none;stroke:#5FAAFF;stroke-width:4.86"/>
	<rect x="1512.34" y="184.61" width="361.97" height="2582.04" style="fill:#198DFF;fill-opacity:0.50"/>
	<rect x="1514.77" y="187.04" width="357.11" height="2577.18" style="fill:none;stroke:#5FAAFF;stroke-width:4.86"/>
	<rect x="1874.31" y="1106.83" width="361.97" height="1659.82" style="fill:#198DFF;fill-opacity:0.50"/>
	<rect x="1876.74" y="1109.26" width="357.11" height="1654.97" style="fill:none;stroke:#5FAAFF;stroke-width:4.86"/>
	<rect x="2236.28" y="2397.77" width="361.80" height="368.89" style="fill:#198DFF;fill-opacity:0.50"/>
	<rect x="2238.71" y="2400.20" width="356.94" height="364.03" style="fill:none;stroke:#5FAAFF;stroke-width:4.86"/>
	<rect x="2598.07" y="2397.77" width="361.97" height="368.89" style="fill:#198DFF;fill-opacity:0.50"/>
	<rect x="2600.50" y="2400.20" width="357.11" height="364.03" style="fill:none;stroke:#5FAAFF;stroke-width:4.86"/>
	<line x1="557.72" y1="2766.66" x2="557.72" y2="113.40" style="stroke:#000000;stroke-width:6.48"/>
	<line x1="557.72" y1="2766.66" x2="512.83" y2="2766.66" style="stroke:#000000;stroke-width:6.48"/>
	<text x="490.22" y="2806.09" style="font-family:'Helvetica';font-size:112.56px;fill:#000000" text-anchor="end">0</text>
	<line x1="557.72" y1="2170.29" x2="512.83" y2="2170.29" style="stroke:#000000;stroke-width:6.48"/>
	<text x="490.22" y="2209.73" style="font-family:'Helvetica';font-size:112.56px;fill:#000000" text-anchor="end">.01</text>
	<line x1="557.72" y1="1574.10" x2="512.83" y2="1574.10" style="stroke:#000000;stroke-width:6.48"/>
	<text x="490.22" y="1613.54" style="font-family:'Helvetica';font-size:112.56px;fill:#000000" text-anchor="end">.02</text>
	<line x1="557.72" y1="977.91" x2="512.83" y2="977.91" style="stroke:#000000;stroke-width:6.48"/>
	<text x="490.22" y="1017.34" style="font-family:'Helvetica';font-size:112.56px;fill:#000000" text-anchor="end">.03</text>
	<line x1="557.72" y1="381.54" x2="512.83" y2="381.54" style="stroke:#000000;stroke-width:6.48"/>
	<text x="490.22" y="420.98" style="font-family:'Helvetica';font-size:112.56px;fill:#000000" text-anchor="end">.04</text>
	<text x="214.55" y="1439.94" style="font-family:'Helvetica';font-size:112.56px;fill:#000000" transform="rotate(-90 214.55,1439.94)" text-anchor="middle">Density</text>
	<line x1="557.72" y1="2766.66" x2="3387.15" y2="2766.66" style="stroke:#000000;stroke-width:6.48"/>
	<line x1="629.10" y1="2766.66" x2="629.10" y2="2811.54" style="stroke:#000000;stroke-width:6.48"/>
	<text x="629.10" y="2912.86" style="font-family:'Helvetica';font-size:112.56px;fill:#000000" text-anchor="middle">20</text>
	<line x1="1300.72" y1="2766.66" x2="1300.72" y2="2811.54" style="stroke:#000000;stroke-width:6.48"/>
	<text x="1300.72" y="2912.86" style="font-family:'Helvetica';font-size:112.56px;fill:#000000" text-anchor="middle">40</text>
	<line x1="1972.52" y1="2766.66" x2="1972.52" y2="2811.54" style="stroke:#000000;stroke-width:6.48"/>
	<text x="1972.52" y="2912.86" style="font-family:'Helvetica';font-size:112.56px;fill:#000000" text-anchor="middle">60</text>
	<line x1="2644.14" y1="2766.66" x2="2644.14" y2="2811.54" style="stroke:#000000;stroke-width:6.48"/>
	<text x="2644.14" y="2912.86" style="font-family:'Helvetica';font-size:112.56px;fill:#000000" text-anchor="middle">80</text>
	<line x1="3315.94" y1="2766.66" x2="3315.94" y2="2811.54" style="stroke:#000000;stroke-width:6.48"/>
	<text x="3315.94" y="2912.86" style="font-family:'Helvetica';font-size:112.56px;fill:#000000" text-anchor="middle">100</text>
	<text x="1972.52" y="3070.31" style="font-family:'Helvetica';font-size:112.56px;fill:#000000" text-anchor="middle">age</text>
	<rect x="3425.96" y="1177.71" width="1821.83" height="524.64" style="fill:#FFFFFF"/>
	<rect x="3429.20" y="1180.95" width="1815.35" height="518.16" style="fill:none;stroke:#FFFFFF;stroke-width:6.48"/>
	<rect x="3474.56" y="1226.31" width="259.20" height="112.39" style="fill:#FF8C19;fill-opacity:0.40"/>
	<rect x="3476.99" y="1228.74" width="254.34" height="107.53" style="fill:none;stroke:#5FAAFF;stroke-width:4.86"/>
	<line x1="3474.56" y1="1439.94" x2="3733.76" y2="1439.94" style="stroke:#000000;stroke-width:9.72"/>
	<rect x="3474.56" y="1541.19" width="259.20" height="112.56" style="fill:#198DFF;fill-opacity:0.50"/>
	<rect x="3476.99" y="1543.62" width="254.34" height="107.70" style="fill:none;stroke:#5FAAFF;stroke-width:4.86"/>
	<text x="3801.26" y="1321.94" style="font-family:'Helvetica';font-size:112.56px;fill:#000000">Sampled from Normal</text>
	<text x="3801.26" y="1479.38" style="font-family:'Helvetica';font-size:112.56px;fill:#000000">Theoretical Normal</text>
	<text x="3801.26" y="1636.99" style="font-family:'Helvetica';font-size:112.56px;fill:#000000">Sampled from t-distribution</text>
</svg>
